<svg width="1280" height="720" xmlns="http://www.w3.org/2000/svg" xmlns:xlink="http://www.w3.org/1999/xlink" overflow="hidden"><defs><clipPath id="clip0"><path d="M0 0 1280 0 1280 720 0 720Z" fill-rule="evenodd" clip-rule="evenodd"/></clipPath></defs><g clip-path="url(#clip0)"><rect x="0" y="0" width="1280" height="720" fill="#FFFFFF"/><path d="M674.5 322.317 509.357 416.5 346.5 321.979 511.53 226.5 674.5 322.317Z" stroke="#0439D9" stroke-miterlimit="8" fill="#FFFFFF" fill-rule="evenodd"/><path d="M509.416 416.4 674.5 322.633 673.772 349.043 510.667 444.5 346.5 349.624C346.531 340.32 346.563 331.804 346.594 322.5L509.416 416.4Z" stroke="#0439D9" stroke-miterlimit="8" fill="#0439D9" fill-rule="evenodd"/><path d="M579.634 457.698 697.5 526.205 463.94 660.5 160.048 485.97 206.481 457.154 159.5 431.609 299.905 349.5 417.771 417.463 346.617 458.241 463.94 525.117 579.583 457.681" stroke="#0439D9" stroke-miterlimit="8" fill="#FFFFFF" fill-rule="evenodd"/><path d="M160.5 486.5 160.5 512.717 464.177 687.5 698.5 553.052C698.388 543.865 698.276 535.349 698.163 526.162L463.841 659.938 160.5 486.5Z" stroke="#0439D9" stroke-miterlimit="8" fill="#0439D9" fill-rule="evenodd"/><path d="M159.77 432.5 159.5 457.479 183 470.5 206.5 457.213 159.77 432.5Z" stroke="#0439D9" stroke-miterlimit="8" fill="#0439D9" fill-rule="evenodd"/><path d="M416.966 417.5 417.5 444.265 370.21 470.5 347.5 457.515 416.966 417.5Z" stroke="#0439D9" stroke-miterlimit="8" fill="#0439D9" fill-rule="evenodd"/><path d="M647.074 416.311 835.274 524.5 1114.5 361.742 694.034 118.5 555.5 199.084 787.149 334.843 647.074 416.311Z" stroke="#0439D9" stroke-miterlimit="8" fill="#FFFFFF" fill-rule="evenodd"/><path d="M646.668 417.007C646.612 425.097 646.556 433.187 646.5 441.276L835.72 553.5 1114.05 388.853C1114.13 380.144 1114.43 371.209 1114.5 362.5L835.047 525.346 646.668 417.007Z" stroke="#0439D9" stroke-miterlimit="8" fill="#0439D9" fill-rule="evenodd"/><path d="M554.779 199.5C554.878 208.561 554.415 218.664 554.514 227.725L764.596 348.5 786.5 335.82 554.779 199.5Z" stroke="#0439D9" stroke-miterlimit="8" fill="#0439D9" fill-rule="evenodd"/><path d="M510.5 254.5 393.5 320.97 510.5 389.5 627.5 321.485 510.5 254.5Z" stroke="#0439D9" stroke-miterlimit="8" fill="none" fill-rule="evenodd"/><path d="M510.5 255.5C510.36 282.51 510.22 309.52 510.08 336.53L464.158 362.5 392.5 321.69 510.5 255.5Z" stroke="#0439D9" stroke-miterlimit="8" fill="#0439D9" fill-rule="evenodd"/><path d="M510.5 255.5 628.5 322.596 557.582 362.5 511.09 335.897C511.202 308.846 511.735 281.878 510.5 255.5Z" stroke="#0439D9" stroke-miterlimit="8" fill="#0439D9" fill-rule="evenodd"/><path d="M415.5 334.825 510.669 389.5 605.5 335.669 509.994 281.5 415.5 334.825Z" stroke="#FFFFFF" stroke-miterlimit="8" fill="#0439D9" fill-rule="evenodd" fill-opacity="0.701961"/><path d="M650.5 321.701 509.021 402.5 369.5 321.411 510.883 239.5 650.5 321.701Z" stroke="#0439D9" stroke-miterlimit="8" stroke-dasharray="8 3" fill="none" fill-rule="evenodd"/><path d="M570.5 100.01 581.651 105.5 699.416 38.3844 699.5 25.5001 570.5 100.01Z" stroke="#0439D9" stroke-miterlimit="8" fill="#FFFFFF" fill-rule="evenodd"/><path d="M699.24 25.2263 698.961 38.1766 815.629 105.809 826.189 99.1049 699.24 25.2263Z" stroke="#0439D9" stroke-width="1.33333" stroke-miterlimit="8" fill="#FFFFFF" fill-rule="evenodd"/><path d="M582.119 105.085 570.5 99.921C570.65 127.05 570.463 153.169 570.612 180.298L698.865 254.5 825.49 180.41 826.5 99.5001 816.06 105.983 815.162 172.215 698.416 241.141 582.343 171.991C582.455 147.855 581.894 133.598 582.119 105.085Z" stroke="#0439D9" stroke-miterlimit="8" fill="#0439D9" fill-rule="evenodd"/><path d="M583.5 172.705 699.222 242.5 815.5 172.84 700.031 107.5 583.5 172.705Z" stroke="#0439D9" stroke-miterlimit="8" fill="#FFFFFF" fill-rule="evenodd"/><path d="M582.5 105.458C582.641 127.584 582.951 149.375 583.091 171.5L699.5 106.879C699.387 84.0016 699.359 62.3778 699.247 39.5001L582.5 105.458Z" stroke="#0439D9" stroke-miterlimit="8" fill="#FFFFFF" fill-rule="evenodd"/><path d="M816.5 105.832 814.989 172.5 699.537 107.401C699.398 84.8423 699.705 62.0591 699.565 39.5001L816.5 105.832Z" stroke="#0439D9" stroke-miterlimit="8" fill="#FFFFFF" fill-rule="evenodd"/><path d="M742.5 216.5 742.5 243.681 766.27 257.5C766.309 254.302 766.462 251.676 766.5 248.478L758.347 243.795C758.385 240.636 758.424 237.476 758.462 234.316L750.653 230.014C750.691 226.88 750.73 223.746 750.768 220.611L742.5 216.5Z" stroke="#0439D9" stroke-miterlimit="8" fill="#0439D9" fill-rule="evenodd"/><path d="M742.5 216.227 765.763 202.5 774.5 207.34 750.897 220.5 742.5 216.227Z" stroke="#0439D9" stroke-miterlimit="8" fill="#FFFFFF" fill-rule="evenodd"/><path d="M751.5 230.152 774.734 216.5 782.5 221.298 759.361 234.5 751.5 230.152Z" stroke="#0439D9" stroke-miterlimit="8" fill="#FFFFFF" fill-rule="evenodd"/><path d="M758.5 243.963 782.519 230.5 790.5 235.26 766.868 248.5 758.5 243.963Z" stroke="#0439D9" stroke-miterlimit="8" fill="#FFFFFF" fill-rule="evenodd"/><path d="M774.278 207.5 774.5 216.466 751.5 230.5 751.5 221.456 774.278 207.5Z" stroke="#0439D9" stroke-miterlimit="8" fill="#0439D9" fill-rule="evenodd"/><path d="M782.269 221.5 782.5 230.466 758.5 244.5C758.529 241.368 758.558 238.237 758.587 235.105L782.269 221.5Z" stroke="#0439D9" stroke-miterlimit="8" fill="#0439D9" fill-rule="evenodd"/><path d="M790.5 235.5 790.471 244.178 766.5 257.5 766.847 248.748 790.5 235.5Z" stroke="#0439D9" stroke-miterlimit="8" fill="#0439D9" fill-rule="evenodd"/><path d="M570.509 179.5C570.432 183.722 570.873 188.284 570.797 192.506L581.5 198.5C581.423 194.655 581.347 190.81 581.27 186.964L570.509 179.5Z" stroke="#0439D9" stroke-miterlimit="8" fill="#0439D9" fill-rule="evenodd"/><path d="M688.514 249.5C688.436 253.568 688.709 256.656 688.631 260.724L699.5 266.5C699.422 262.795 699.344 259.09 699.266 255.385L688.514 249.5Z" stroke="#0439D9" stroke-miterlimit="8" fill="#0439D9" fill-rule="evenodd"/><path d="M0.0142085 0C-0.0636804 4.0684 0.209004 7.15599 0.131115 11.2244L11 17C10.9221 13.2949 10.8441 9.58974 10.7663 5.88461L0.0142085 0Z" stroke="#0439D9" stroke-miterlimit="8" fill="#0439D9" fill-rule="evenodd" transform="matrix(-1 -8.74228e-08 -8.74228e-08 1 710.5 249.5)"/><path d="M0.0129168 0C-0.0578913 4.30772 0.190004 7.57693 0.119196 11.8847L10 18C9.92919 14.0769 9.85832 10.1538 9.78751 6.23077L0.0129168 0Z" stroke="#0439D9" stroke-miterlimit="8" fill="#0439D9" fill-rule="evenodd" transform="matrix(-1 -8.74228e-08 -8.74228e-08 1 825.5 181.5)"/><path d="M738.349 163.782C738.4 160.583 738.45 157.384 738.5 154.186L691.081 180.887 622.035 139.5 621.5 150.982 691.081 190.5 738.349 163.782Z" stroke="#0439D9" stroke-miterlimit="8" fill="#0439D9" fill-rule="evenodd"/><path d="M621.703 131.805 669.905 105.5 739.5 146.031 739.116 154.173 691.434 180.5 621.5 140.416C621.568 137.546 621.635 134.675 621.703 131.805Z" stroke="#0439D9" stroke-miterlimit="8" fill="#FFFFFF" fill-rule="evenodd"/><path d="M621.5 132.5 691.007 171.5 739.5 145.939 739.5 145.939" stroke="#0439D9" stroke-miterlimit="8" fill="none" fill-rule="evenodd"/><path d="M669.5 116.775 646.167 130.5 634.5 124.187C638.66 113.207 652.543 107.785 658.602 109.981 662.762 110.988 668.166 113.824 669.5 116.775Z" stroke="#0439D9" stroke-miterlimit="8" fill="#0439D9" fill-rule="evenodd"/><path d="M657.5 73.5264 680.239 59.5001 680.5 87.5527 657.5 100.5 657.5 73.5264Z" stroke="#0439D9" stroke-miterlimit="8" fill="#0439D9" fill-rule="evenodd"/><path d="M671.5 65.5001 657.5 73.7702 657.5 90.5001 671.415 82.0152 671.5 65.5001Z" stroke="#0439D9" stroke-miterlimit="8" fill="#FFFFFF" fill-rule="evenodd"/><path d="M763.477 124.5 745.5 134.627 783.603 155.5 802.5 145.061 763.477 124.5Z" stroke="#0439D9" stroke-miterlimit="8" fill="#FFFFFF" fill-rule="evenodd"/><path d="M745.5 134.5 745.774 139.538 783.71 161.5 803.295 150.519C803.318 148.732 803.477 147.01 803.5 145.223L783.436 155.945 745.5 134.5Z" stroke="#0439D9" stroke-miterlimit="8" fill="#0439D9" fill-rule="evenodd"/><path d="M745.5 139.5 745.508 154.553 748.5 156.5 748.307 141.317 745.5 139.5Z" stroke="#0439D9" stroke-miterlimit="8" fill="#0439D9" fill-rule="evenodd"/><path d="M780.5 160.5 780.508 175.553 783.5 177.5 783.307 162.317 780.5 160.5Z" stroke="#0439D9" stroke-miterlimit="8" fill="#0439D9" fill-rule="evenodd"/><path d="M0 0 0.00757345 15.0534 3 17 2.80682 1.81677 0 0Z" stroke="#0439D9" stroke-miterlimit="8" fill="#0439D9" fill-rule="evenodd" transform="matrix(-1 -8.74228e-08 -8.74228e-08 1 802.5 151.5)"/><path d="M0 0 0.00757345 15.0534 3 17 2.80682 1.81677 0 0Z" stroke="#0439D9" stroke-miterlimit="8" fill="#0439D9" fill-rule="evenodd" transform="matrix(-1 -8.74228e-08 -8.74228e-08 1 786.5 160.5)"/><path d="M0 0 0.00852245 15.0534 3.37592 17 5 1.16793 0 0Z" stroke="#0439D9" stroke-miterlimit="8" fill="#0439D9" fill-rule="evenodd" transform="matrix(-1 -8.74228e-08 -8.74228e-08 1 752.5 140.5)"/><path d="M796.5 151.5 796.506 166.553 798.983 168.5 799.5 153.144 796.5 151.5Z" stroke="#0439D9" stroke-miterlimit="8" fill="#0439D9" fill-rule="evenodd"/><path d="M598.647 119.406 614.5 110.5C614.451 128.814 614.402 147.129 614.353 165.443L598.5 174.5C598.549 156.135 598.598 137.771 598.647 119.406Z" stroke="#0439D9" stroke-miterlimit="8" fill="#FFFFFF" fill-rule="evenodd"/><path d="M614.657 110.664 630.868 101.5C630.815 119.729 631.55 138.258 631.497 156.486L614.5 165.5C614.552 147.221 614.605 128.943 614.657 110.664Z" stroke="#0439D9" stroke-miterlimit="8" fill="#FFFFFF" fill-rule="evenodd"/><path d="M598.746 174.5 589.726 168.713C589.65 149.871 589.575 131.501 589.5 112.659L621.141 95.5001 630.5 101.332 598.025 120.174 598.746 174.5Z" stroke="#0439D9" stroke-miterlimit="8" fill="#0439D9" fill-rule="evenodd"/><path d="M0 0 0.0069964 15.0534 2.77142 17 3 2.14877 0 0Z" stroke="#0439D9" stroke-miterlimit="8" fill="#0439D9" fill-rule="evenodd" transform="matrix(-1 -8.74228e-08 -8.74228e-08 1 611.5 132.5)"/><path d="M0 0 0.0069964 14.1679 2.77142 16 3 2.02237 0 0Z" stroke="#0439D9" stroke-miterlimit="8" fill="#0439D9" fill-rule="evenodd" transform="matrix(-1 -8.74228e-08 -8.74228e-08 1 620.5 128.5)"/><path d="M712.223 61.5001 701.5 67.3801 724.228 79.5001 735.5 73.4387 712.223 61.5001Z" stroke="#0439D9" stroke-miterlimit="8" fill="#FFFFFF" fill-rule="evenodd"/><path d="M701.5 66.5001 701.661 69.4857 723.899 82.5001 735.38 75.9929C735.393 74.9339 735.487 73.9131 735.5 72.8541L723.739 79.2082 701.5 66.5001Z" stroke="#0439D9" stroke-miterlimit="8" fill="#0439D9" fill-rule="evenodd"/><path d="M723.908 84.5001 713.5 90.3801 735.559 102.5 746.5 96.4387 723.908 84.5001Z" stroke="#0439D9" stroke-miterlimit="8" fill="#FFFFFF" fill-rule="evenodd"/><path d="M713.5 90.5001 713.656 93.4857 735.24 106.5 746.383 99.9929C746.396 98.9339 746.487 97.9131 746.5 96.8541L735.084 103.208 713.5 90.5001Z" stroke="#0439D9" stroke-miterlimit="8" fill="#0439D9" fill-rule="evenodd"/><path d="M0 10.9474 17.7955 0 18 21.8947 0 32 0 10.9474Z" stroke="#0439D9" stroke-miterlimit="8" fill="#0439D9" fill-rule="evenodd" transform="matrix(-1 -8.74228e-08 -8.74228e-08 1 785.5 95.5001)"/><path d="M0 10.9474 17.7955 0 18 21.8947 0 32 0 10.9474Z" stroke="#0439D9" stroke-miterlimit="8" fill="#FFFFFF" fill-rule="evenodd" transform="matrix(-1 -8.74228e-08 -8.74228e-08 1 798.5 95.5001)"/><path d="M710.861 209.107C707.406 202.595 716.37 191.073 730.883 183.373 745.396 175.673 759.963 174.71 763.418 181.223 766.873 187.735 757.909 199.256 743.395 206.956 728.882 214.656 714.316 215.619 710.861 209.107Z" stroke="#0439D9" stroke-width="1.33333" stroke-miterlimit="8" fill="#0439D9" fill-rule="evenodd"/><path d="M532.5 263.5 537.5 262.321 533.636 257.5 532.5 263.5Z" stroke="#0439D9" stroke-miterlimit="8" fill="#FFFFFF" fill-rule="evenodd"/><path d="M517.756 214.336 524.408 210.5 544.712 221.89 547.746 229.794 551.131 228.167 552.414 229.097 552.064 232.118 550.78 233.397 563.5 240.603 563.383 250.482 540.511 263.5 534.793 260.943C534.716 257.456 530.787 246.763 525.108 254.667L506.203 243.625C505.503 240.952 501.069 229.794 496.401 237.697 495.437 239.33 493.134 235.76 491.5 234.792L491.617 225.029C496.79 221.852 508.382 215.537 513.672 212.011L517.756 214.336Z" stroke="#0439D9" stroke-miterlimit="8" fill="#0439D9" fill-rule="evenodd"/><path d="M492.5 225.732 514.147 212.5 518.5 214.407 502.853 224.182 498.853 230.5 492.5 225.732Z" stroke="#0439D9" stroke-miterlimit="8" fill="#0439D9" fill-rule="evenodd"/><path d="M525.048 211.5 503.5 223.636 522.602 234.5 544.5 222.018 525.048 211.5Z" stroke="#0439D9" stroke-miterlimit="8" fill="#0439D9" fill-rule="evenodd"/><path d="M562.5 240.994 540.784 253.5 526.5 244.888 548.565 232.5 551.119 233.68 562.5 240.994Z" stroke="#0439D9" stroke-miterlimit="8" fill="#0439D9" fill-rule="evenodd"/><path d="M541.5 253.5 540.5 263.5" stroke="#0439D9" stroke-miterlimit="8" fill="none" fill-rule="evenodd"/><path d="M525.5 256.917C525.518 253.268 527.782 252.318 529.115 252.527 530.448 252.736 533.5 255.054 533.5 258.171 533.5 261.287 532.538 263.795 530.325 263.472 528.112 263.149 525.482 260.565 525.5 256.917Z" stroke="#0439D9" stroke-miterlimit="8" fill="#FFFFFF" fill-rule="evenodd"/><path d="M503.5 246.5 508.5 245.321 504.636 240.5 503.5 246.5Z" stroke="#0439D9" stroke-miterlimit="8" fill="none" fill-rule="evenodd"/><path d="M496.5 239.917C496.521 236.268 499.067 235.318 500.567 235.527 502.067 235.736 505.5 238.054 505.5 241.171 505.5 244.287 504.418 246.795 501.928 246.472 499.438 246.149 496.48 243.565 496.5 239.917Z" stroke="#0439D9" stroke-miterlimit="8" fill="#FFFFFF" fill-rule="evenodd"/><path d="M522.972 243.5 519.5 244.446C519.546 245.707 519.593 246.969 519.639 248.23L520.472 248.5 524.5 246.608" stroke="#0439D9" stroke-miterlimit="8" fill="none" fill-rule="evenodd"/><path d="M527.5 257.909C527.509 255.919 528.641 255.401 529.308 255.515 529.974 255.629 531.5 256.893 531.5 258.593 531.5 260.293 531.019 261.661 529.912 261.485 528.806 261.309 527.491 259.899 527.5 257.909Z" stroke="#0439D9" stroke-miterlimit="8" fill="#FFFFFF" fill-rule="evenodd"/><path d="M536.526 253.5 540.926 256.3 544.5 254.2 544.5 258.478 540.788 260.5 536.526 258.167C536.504 256.922 536.481 255.678 536.526 253.5Z" stroke="#0439D9" stroke-miterlimit="8" fill="#FFFFFF" fill-rule="evenodd"/><path d="M563.5 244.5 559.578 246.455C559.552 247.803 559.526 249.152 559.5 250.5L563.5 248.41 563.5 244.5Z" stroke="#0439D9" stroke-miterlimit="8" fill="#FFFFFF" fill-rule="evenodd"/><path d="M491.5 232.5 495.418 235.135 495.5 237.5" stroke="#0439D9" stroke-miterlimit="8" fill="none" fill-rule="evenodd"/><path d="M513.75 232.5 521.625 236.167 524.5 243.5 513.5 238.167C513.583 236.278 513.667 234.389 513.75 232.5Z" stroke="#0439D9" stroke-miterlimit="8" fill="#FFFFFF" fill-rule="evenodd"/><path d="M511.5 231.586 503.194 226.5 500.5 231.113 511.051 237.5 511.5 231.586Z" stroke="#0439D9" stroke-miterlimit="8" fill="#FFFFFF" fill-rule="evenodd"/><path d="M498.5 240.909C498.512 238.919 499.926 238.401 500.759 238.515 501.593 238.629 503.5 239.893 503.5 241.593 503.5 243.293 502.899 244.661 501.516 244.485 500.132 244.309 498.489 242.899 498.5 240.909Z" stroke="#0439D9" stroke-miterlimit="8" fill="#FFFFFF" fill-rule="evenodd"/><path d="M523.5 235.912 543.988 224.5 547.5 233.088 526.544 244.5 523.5 235.912Z" stroke="#0439D9" stroke-miterlimit="8" fill="#FFFFFF" fill-rule="evenodd"/><path d="M195.611 429.5 186.5 434.854 269.708 483.5 297.5 467.723 287.628 461.372 269.11 472.341 195.611 429.5Z" stroke="#0439D9" stroke-miterlimit="8" fill="#0439D9" fill-rule="evenodd"/><path d="M223.5 413.655 232.858 408.5 315.5 456.213 306.01 461.5 223.5 413.655Z" stroke="#0439D9" stroke-miterlimit="8" fill="#0439D9" fill-rule="evenodd"/><path d="M241.5 403.446 323.901 450.5 333.277 445.403 287.719 419.523 342.652 439.913 351.5 434.946 269.099 387.5 259.723 393.12 305.282 419.261 251.008 398.218 241.5 403.446Z" stroke="#0439D9" stroke-miterlimit="8" fill="#0439D9" fill-rule="evenodd"/><path d="M278.5 382.413 306.363 366.5 315.475 371.848 297.516 381.891 324.719 397.804 343.602 387.37 352.186 392.848 333.83 403.283 361.297 419.065 379.917 408.63 388.5 413.848 361.429 429.5 278.5 382.413Z" stroke="#0439D9" stroke-miterlimit="8" fill="#0439D9" fill-rule="evenodd"/><path d="M759.941 385.87C788.491 332.865 880.948 278.234 939.048 277.236 997.147 276.238 1030.85 331.878 1002.21 382.578 973.57 433.279 884.906 488.081 825.426 490.668 765.945 493.254 731.391 438.874 759.941 385.87Z" stroke="#0439D9" stroke-width="2" stroke-miterlimit="8" stroke-opacity="0.980392" fill="#FFFFFF" fill-rule="evenodd"/><path d="M787.042 384.885C809.449 343.287 882.01 300.411 927.607 299.628 973.203 298.845 999.657 342.512 977.179 382.302 954.7 422.092 885.116 465.101 838.435 467.131 791.754 469.161 764.636 426.483 787.042 384.885Z" stroke="#0439D9" stroke-width="1.33333" stroke-miterlimit="8" stroke-opacity="0.980392" fill="#0439D9" fill-rule="evenodd"/><path d="M804.628 384.465C822.94 350.469 882.24 315.429 919.504 314.789 956.768 314.149 978.388 349.835 960.017 382.354 941.647 414.873 884.779 450.022 846.629 451.681 808.479 453.34 786.317 418.461 804.628 384.465Z" stroke="#0439D9" stroke-width="1.33333" stroke-miterlimit="8" stroke-opacity="0.980392" fill="#FFFFFF" fill-rule="evenodd"/><path d="M831.711 384.558C843.628 362.435 882.219 339.632 906.469 339.215 930.719 338.799 944.788 362.022 932.833 383.184 920.878 404.347 883.871 427.22 859.044 428.3 834.217 429.38 819.795 406.682 831.711 384.558Z" stroke="#0439D9" stroke-width="1.33333" stroke-miterlimit="8" stroke-opacity="0.980392" fill="#0439D9" fill-rule="evenodd"/><path d="M847.883 383.529C855.87 368.7 881.738 353.415 897.992 353.136 914.247 352.857 923.678 368.423 915.664 382.608 907.651 396.793 882.845 412.125 866.204 412.849 849.563 413.572 839.895 398.358 847.883 383.529Z" stroke="#0439D9" stroke-width="1.33333" stroke-miterlimit="8" stroke-opacity="0.980392" fill="#FFFFFF" fill-rule="evenodd"/><path d="M861.601 383.313C866.351 374.496 881.731 365.408 891.396 365.242 901.061 365.076 906.668 374.331 901.903 382.766 897.139 391.2 882.389 400.316 872.495 400.746 862.6 401.177 856.852 392.13 861.601 383.313Z" stroke="#0439D9" stroke-width="1.33333" stroke-miterlimit="8" stroke-opacity="0.980392" fill="#0439D9" fill-rule="evenodd"/><path d="M1010.5 424.5 1117.92 363.439 1121.5 270.5 1093.75 299.235 1066.45 332.459 1057.05 367.48 1031.54 394.867 1010.5 424.5Z" stroke="#0439D9" stroke-miterlimit="8" fill="#0439D9" fill-rule="evenodd"/><path d="M1120.5 271.5 1070.31 274.661 1037.42 285.387 966.268 274.692 951.5 284.716 953.514 300.806 966.268 310.862 980.365 323.6 991.105 347.064 1002.52 361.812 1015.94 375.891 1009.9 391.98 1013.93 410.081 1010.57 425.5 1031.38 393.991 1056.22 367.846 1066.99 332.315 1106.56 287.398 1120.5 271.5Z" stroke="#0439D9" stroke-miterlimit="8" fill="#FFFFFF" fill-rule="evenodd"/><path d="M1080.5 293.5 1062.13 306.179 1050.04 321.576 1040.63 327.915 1031.22 336.519 1014.65 341.5 992.251 334.255 981.5 327.009" stroke="#0439D9" stroke-miterlimit="8" fill="none" fill-rule="evenodd"/><path d="M1006.5 301.5 977.996 297.5 962.408 299 953.5 300" stroke="#0439D9" stroke-miterlimit="8" fill="none" fill-rule="evenodd"/><path d="M1027.5 363.5 1018.17 374.259 1015.5 376.5" stroke="#0439D9" stroke-miterlimit="8" fill="none" fill-rule="evenodd"/><path d="M874.5 186.801 896.948 173.5 908.5 180.102 886.298 193.5 874.5 186.801Z" stroke="#0439D9" stroke-miterlimit="8" fill="#FFFFFF" fill-rule="evenodd"/><path d="M873.668 186.976 873.5 190.862 886.457 197.5 908.5 185.519 908.5 180.5 886.625 192.805 873.668 186.976Z" stroke="#0439D9" stroke-miterlimit="8" fill="#0439D9" fill-rule="evenodd"/><path d="M860.401 173.5 844.5 182.213 890.111 207.5 905.5 199 860.401 173.5Z" stroke="#0439D9" stroke-miterlimit="8" fill="#0439D9" fill-rule="evenodd"/><path d="M15.1311 0 0 8.87901 9.72311 14.6257 24.9077 6.18985 15.1311 0Z" stroke="#0439D9" stroke-width="1.33333" stroke-miterlimit="8" fill="#FFFFFF" fill-rule="evenodd" transform="matrix(0.529962 -0.848022 -0.848022 -0.529962 897.441 223.755)"/><path d="M844.5 182.5 890.5 208.011 890.162 219.5 845.007 194.495 844.5 182.5Z" stroke="#0439D9" stroke-miterlimit="8" fill="#0439D9" fill-rule="evenodd"/><path d="M835.5 209.689 857.921 196.5 869.5 203.385 846.825 216.5 835.5 209.689Z" stroke="#0439D9" stroke-miterlimit="8" fill="#FFFFFF" fill-rule="evenodd"/><path d="M835.173 210.138 834.5 213.862 847.457 220.5 869.5 208.519 869.5 203.5 847.625 215.805 835.173 210.138Z" stroke="#0439D9" stroke-miterlimit="8" fill="#0439D9" fill-rule="evenodd"/><path d="M851.5 200.5 863.5 207.5" stroke="#0439D9" stroke-miterlimit="8" fill="none" fill-rule="evenodd"/><path d="M846.5 202.5 858.5 210.5" stroke="#0439D9" stroke-miterlimit="8" fill="none" fill-rule="evenodd"/><path d="M841.5 206.5 852.5 213.5" stroke="#0439D9" stroke-miterlimit="8" fill="none" fill-rule="evenodd"/><path d="M892.5 176.5 903.5 183.5" stroke="#0439D9" stroke-miterlimit="8" fill="none" fill-rule="evenodd"/><path d="M887.5 178.5 898.5 185.5" stroke="#0439D9" stroke-miterlimit="8" fill="none" fill-rule="evenodd"/><path d="M881.5 182.5 893.5 189.5" stroke="#0439D9" stroke-miterlimit="8" fill="none" fill-rule="evenodd"/><path d="M863.5 199.5 841.5 213.5" stroke="#0439D9" stroke-miterlimit="8" fill="none" fill-rule="evenodd"/><path d="M902.5 176.5 880.5 190.5" stroke="#0439D9" stroke-miterlimit="8" fill="none" fill-rule="evenodd"/><path d="M1073.5 299.5 1064.37 308.974 1057.6 318.109 1046.44 328.936 1034.26 335.703 1023.78 344.162 1010.59 344.5 991.647 338.748 986.235 336.38 981.5 325.553 993 334.35 1014.99 340.778 1030.54 335.365 1043.06 325.214 1053.21 319.462 1062 305.252 1073.5 299.5Z" stroke="#0439D9" stroke-miterlimit="8" fill="#0439D9" fill-rule="evenodd"/><path d="M1005.5 301.326 978.494 300.631 960.602 305.5 952.5 301.326 952.838 299.239 978.831 297.5 1005.5 301.326Z" stroke="#0439D9" stroke-miterlimit="8" fill="#0439D9" fill-rule="evenodd"/><path d="M1089.5 278.5 1066.81 286.833C1059.65 289.333 1053.27 291.278 1046.5 293.5L1055.3 286.167 1072.91 280.833 1089.5 278.5Z" stroke="#0439D9" stroke-miterlimit="8" fill="#0439D9" fill-rule="evenodd"/><path d="M1027.5 362.5 1013.5 372.91 1016.57 376.5 1026.13 366.808 1027.5 362.5Z" stroke="#0439D9" stroke-miterlimit="8" fill="#0439D9" fill-rule="evenodd"/><path d="M360.77 516.5 397.692 536.752 397.961 550.954 373.167 537.278 373.167 550.954 397.692 565.419 398.231 579.358 373.167 565.945 373.436 579.095 398.5 592.772 398.5 607.5 360.5 585.934 360.77 516.5Z" stroke="#0439D9" stroke-miterlimit="8" fill="#FFFF00" fill-rule="evenodd"/><path d="M325.239 509.538 325.5 523.213 337.5 529.787 337.761 516.638ZM313.5 488.5 349.5 508.486 349.5 551.351 325.761 537.151 325.761 564.5 313.761 557.926Z" stroke="#0439D9" stroke-miterlimit="8" fill="#FFFF00" fill-rule="evenodd"/><path d="M409.5 544.5 410.557 558.224 421.657 564.559 421.922 606.787 410.029 598.87 410.029 614.177 446.236 634.5 446.5 620.512 433.814 613.65 433.814 571.685 445.707 578.811 446.236 564.559 409.5 544.5Z" stroke="#0439D9" stroke-miterlimit="8" fill="#FFFF00" fill-rule="evenodd"/><path d="M496.422 585.342 496.422 557.5 459.5 578.25 460.039 633.671 471.358 640.5 497.5 626.579 496.692 607.668 484.564 615.548 484.564 620.275 478.096 624.215 471.358 621.063 472.167 585.079 484.564 578.25 484.294 592.434 496.422 585.342Z" stroke="#0439D9" stroke-miterlimit="8" fill="#FFFF00" fill-rule="evenodd"/><path d="M507.5 550.338 508.032 620.5 520.543 613.642 520.277 585.946 532.255 578.297 532.255 606.784 544.5 600.717 544.234 529.5 532.255 536.886C532.344 546.117 532.433 555.349 532.522 564.581L520.543 571.967 519.479 544.007 507.5 550.338Z" stroke="#0439D9" stroke-miterlimit="8" fill="#FFFF00" fill-rule="evenodd"/><path d="M556.5 522.074 592.5 501.5 592.5 515.48 580.761 523.129C580.674 536.845 580.587 550.561 580.5 564.277L592.5 557.683C592.5 562.343 592.5 567.002 592.5 571.662L557.022 592.5 557.022 578.257 568.761 571.399 568.761 529.196 557.022 536.845 556.5 522.074Z" stroke="#0439D9" stroke-miterlimit="8" fill="#FFFF00" fill-rule="evenodd"/><path d="M604.57 495.066 603.5 565.5 616.88 558.616 616.345 515.985 628.655 551.201 641.5 543.787 640.697 471.5 628.655 481.032 629.458 508.57 616.88 487.917 604.57 495.066Z" stroke="#0439D9" stroke-miterlimit="8" fill="#FFFF00" fill-rule="evenodd"/><path d="M256.8 492.609C259.085 477.794 266.723 475.5 278.965 475.5 291.207 475.5 297.966 479.809 301.131 492.609 303.944 512.816 290.152 511.482 277.91 511.482 265.669 511.482 254.514 507.424 256.8 492.609Z" stroke="#0439D9" stroke-miterlimit="8" fill="#0439D9" fill-rule="evenodd"/><path d="M264.382 491.918 292.284 490.5C295.028 494.073 304.56 511.348 280.846 513.356 257.132 515.364 262.475 495.727 264.382 491.918Z" stroke="#0439D9" stroke-miterlimit="8" fill="#FFFFFF" fill-rule="evenodd"/><path d="M281.235 525.401C280.756 527.722 281.771 537.144 283.683 536.909 285.595 536.674 284.17 529.305 284.118 523.485L281.235 525.401Z" stroke="#0439D9" stroke-width="1.33333" stroke-miterlimit="8" fill="#FFFFFF" fill-rule="evenodd"/><path d="M274.998 502.931 282.384 502.5C283.11 503.588 285.634 508.845 279.356 509.456 273.079 510.067 274.494 504.091 274.998 502.931Z" stroke="#0439D9" stroke-miterlimit="8" fill="#0439D9" fill-rule="evenodd"/><path d="M274.493 523.141C274.013 525.462 275.028 534.884 276.941 534.649 278.853 534.414 277.428 527.045 277.376 521.225L274.493 523.141Z" stroke="#0439D9" stroke-width="1.33333" stroke-miterlimit="8" fill="#FFFFFF" fill-rule="evenodd"/><path d="M0 1C-3.8194e-16 0.447715 0.671573 0 1.5 0 2.32843 -2.54627e-16 3 0.447715 3 1 3 1.55228 2.32843 2 1.5 2 0.671573 2 -5.7291e-16 1.55228 0 1Z" stroke="#0439D9" stroke-miterlimit="8" fill="#0439D9" fill-rule="evenodd" transform="matrix(-1 -8.74228e-08 -8.74228e-08 1 270.5 496.5)"/><path d="M0 1C-2.54627e-16 0.447715 0.447715 0 1 0 1.55228 -2.54627e-16 2 0.447715 2 1 2 1.55228 1.55228 2 1 2 0.447715 2 -3.8194e-16 1.55228 0 1Z" stroke="#0439D9" stroke-miterlimit="8" fill="#0439D9" fill-rule="evenodd" transform="matrix(-1 -8.74228e-08 -8.74228e-08 1 287.5 495.5)"/><path d="M272.177 512.767C270.286 511.779 261.879 510.332 261.611 512.045 261.342 513.758 268.073 514.344 273.123 515.736L272.177 512.767Z" stroke="#0439D9" stroke-width="1.33333" stroke-miterlimit="8" fill="#FFFFFF" fill-rule="evenodd"/><path d="M8.25979-3.40239e-05C6.2073 0.583305-0.890339 5.31473 0.0929195 6.74309 1.07618 8.17145 6.36483 3.96725 10.9883 1.50426L8.25979-3.40239e-05Z" stroke="#0439D9" stroke-width="1.33333" stroke-miterlimit="8" fill="#FFFFFF" fill-rule="evenodd" transform="matrix(-0.597345 0.801985 0.801985 0.597345 289.904 506.079)"/><path d="M276.411 513.505C275.877 513.711 272.718 512.38 272.184 512.585L271.61 515.742C271.2 516.709 275.382 515.799 274.972 516.766L270.5 528.661C278.944 531.552 283.589 530.601 289.5 528.77 288.345 524.911 284.884 519.051 284.486 516.766 285.481 515.591 287.629 516.197 287.11 515.06 286.59 513.922 286.492 513.444 285.552 512.5L281.794 513.066 276.411 513.505Z" stroke="#0439D9" stroke-miterlimit="8" fill="#0439D9" fill-rule="evenodd"/><path d="M690.739 117.5 725.5 138.244 704.029 149.617C698.278 152.851 699.56 146.717 695.339 149.282 693.458 154.19 680.643 161.7 678.707 165.009L679.375 177.5 643.5 157.426C643.574 153.113 643.649 148.801 643.723 144.489L656.65 137.068 659.323 131.716 660.342 128.658 665.944 123.559 674.093 120.5 682.046 122.49Z" stroke="#0439D9" stroke-miterlimit="8" fill="#0439D9" fill-rule="evenodd"/><path d="M693.966 148.029C694.792 149.997 700.344 156.473 701.643 155.325 702.943 154.177 698.132 149.433 695.131 145.14L693.966 148.029Z" stroke="#0439D9" stroke-width="1.33333" stroke-miterlimit="8" fill="#FFFFFF" fill-rule="evenodd"/><path d="M689.164 147.175C689.066 149.307 691.301 157.539 692.967 157.06 694.634 156.581 692.325 150.231 691.456 145.065L689.164 147.175Z" stroke="#0439D9" stroke-width="1.33333" stroke-miterlimit="8" fill="#FFFFFF" fill-rule="evenodd"/><path d="M844.243 273.5 842.567 267.713 848.814 270.426 843.176 269.883 841.5 265.904 844.243 263.372 850.338 266.628 846.376 267.532 842.871 261.926 849.119 262.106 850.948 264.819 844.091 261.021 848.662 258.489 851.557 259.755 846.529 259.755 841.652 257.404 850.338 256.5 857.5 261.745 846.376 261.745 841.957 259.755 847.748 260.117 852.014 264.458 848.205 268.798 843.176 263.372 848.814 267.713 850.033 271.149 843.481 267.351" stroke="#0439D9" stroke-miterlimit="8" fill="none" fill-rule="evenodd"/><path d="M820.788 314.782C820.553 317.141 822.545 326.406 824.422 325.973 826.299 325.54 824.114 318.359 823.455 312.576L820.788 314.782Z" stroke="#0439D9" stroke-width="1.33333" stroke-miterlimit="8" fill="#FFFFFF" fill-rule="evenodd"/><path d="M816.005 314.841C815.525 317.163 816.541 326.585 818.453 326.35 820.365 326.115 818.94 318.745 818.888 312.926L816.005 314.841Z" stroke="#0439D9" stroke-width="1.33333" stroke-miterlimit="8" fill="#FFFFFF" fill-rule="evenodd"/><path d="M815.37 311.355C812.879 315.375 816.475 319.395 817.027 323.415L820.234 323.358C820.189 322.151 819.491 318.777 821.294 318.026 822.807 317.95 822.254 322.208 822.789 323.5L825.234 322.816C825.017 318.711 828.604 312.211 824.582 310.5L815.37 311.355Z" stroke="#0439D9" stroke-miterlimit="8" fill="#FFFFFF" fill-rule="evenodd"/><path d="M812.816 303.011C810.925 302.023 802.519 300.575 802.25 302.289 801.981 304.002 808.712 304.587 813.762 305.98L812.816 303.011Z" stroke="#0439D9" stroke-width="1.33333" stroke-miterlimit="8" fill="#FFFFFF" fill-rule="evenodd"/><path d="M817.451 304.461C816.903 304.657 813.665 303.385 813.118 303.582L812.529 306.598C812.109 307.522 816.396 306.652 815.976 307.576L814.418 312.5C823.074 312.491 821.026 312.153 827.001 311.79 825.818 308.102 826.136 309.759 825.728 307.576 826.749 306.453 828.951 307.033 828.418 305.946 827.886 304.859 827.785 304.402 826.821 303.5L822.969 304.041 817.451 304.461Z" stroke="#0439D9" stroke-miterlimit="8" fill="#0439D9" fill-rule="evenodd"/><path d="M8.25979-3.40239e-05C6.2073 0.583305-0.890339 5.31473 0.0929195 6.74309 1.07618 8.17145 6.36483 3.96725 10.9883 1.50426L8.25979-3.40239e-05Z" stroke="#0439D9" stroke-width="1.33333" stroke-miterlimit="8" fill="#FFFFFF" fill-rule="evenodd" transform="matrix(0.126443 -0.991974 -0.991974 -0.126443 824.285 314.814)"/><path d="M795.838 284.353C797.019 269.424 804.481 266.569 816.714 265.655 828.947 264.741 836.022 268.529 840.137 281.043 844.451 300.962 830.57 300.663 818.338 301.576 806.105 302.49 794.656 299.281 795.838 284.353Z" stroke="#0439D9" stroke-width="1.33333" stroke-miterlimit="8" fill="#0439D9" fill-rule="evenodd"/><path d="M803.288 283.25 831.467 279.732C834.513 283.067 845.455 299.474 821.565 303.261 797.675 307.047 801.638 287.172 803.288 283.25Z" stroke="#0439D9" stroke-width="1.33333" stroke-miterlimit="8" fill="#FFFFFF" fill-rule="evenodd"/><path d="M816.945 283.137 816.836 285.596 813.531 286.185" stroke="#0439D9" stroke-width="1.33333" stroke-miterlimit="8" fill="none" fill-rule="evenodd"/><path d="M3.10415 0 3.23349 2.45746 0 3.36283" stroke="#0439D9" stroke-width="1.33333" stroke-miterlimit="8" fill="none" fill-rule="evenodd" transform="matrix(-0.972019 0.234904 0.234904 0.972019 824.687 282.543)"/><path d="M0 1.27302C-3.24158e-16 0.56995 0.569973 0 1.27307 0 1.97617 -3.24144e-16 2.54614 0.56995 2.54614 1.27302 2.54614 1.97609 1.97617 2.54604 1.27307 2.54604 0.569973 2.54604 -4.86237e-16 1.97609 0 1.27302Z" stroke="#0439D9" stroke-width="1.33333" stroke-miterlimit="8" fill="#0439D9" fill-rule="evenodd" transform="matrix(-0.997222 0.0744893 0.0744893 0.997222 813.532 290.632)"/><path d="M0 1.27302C-3.24158e-16 0.56995 0.569973 0 1.27307 0 1.97617 -3.24144e-16 2.54614 0.56995 2.54614 1.27302 2.54614 1.97609 1.97617 2.54604 1.27307 2.54604 0.569973 2.54604 -4.86237e-16 1.97609 0 1.27302Z" stroke="#0439D9" stroke-width="1.33333" stroke-miterlimit="8" fill="#0439D9" fill-rule="evenodd" transform="matrix(-0.997222 0.0744893 0.0744893 0.997222 826.779 289.474)"/><path d="M958 279 977.292 287.873 986.938 298.36 992.297 304.006 1008.64 320.139 1013.46 333.583 1014 339.767 1011.05 353.48 1007.57 368" stroke="#0439D9" stroke-width="2" stroke-miterlimit="8" fill="none" fill-rule="evenodd"/><path d="M486.5 345.086C495.025 326.009 553.264 295.723 561.873 302.459 570.764 305.318 567.753 315.989 562.211 320.206 539.844 339.991 499.667 356.294 491.564 354.341 489.876 351.256 489.032 348.086 486.5 345.086Z" stroke="#FFFFFF" stroke-miterlimit="8" fill="#FFFFFF" fill-rule="evenodd"/><path d="M488.5 344.938C499.189 327.544 545.658 302.108 560.313 303.56 581.128 310.931 543.633 325.84 532.887 331.955 511.763 343.654 493.676 346.976 488.5 344.938Z" stroke="#0439D9" stroke-miterlimit="8" fill="#0439D9" fill-rule="evenodd"/><path d="M504.5 324.188 509.31 321.5 519.255 327.483 519.5 333.205 515.016 336.5 504.745 330.344C504.69 328.408 504.636 326.471 504.5 324.188Z" stroke="#FFFFFF" stroke-miterlimit="8" fill="#FFFFFF" fill-rule="evenodd"/><path d="M508.175 321 504 323.88 514.07 330 518 327.12 508.175 321Z" fill="#0439D9" fill-rule="evenodd"/><path d="M514.5 317.188 519.63 314.5 530.239 320.483 530.5 326.205 525.717 329.5 514.761 323.344C514.703 321.408 514.645 319.471 514.5 317.188Z" stroke="#FFFFFF" stroke-miterlimit="8" fill="#FFFFFF" fill-rule="evenodd"/><path d="M519.175 314 515 316.88 525.07 323 529 320.12 519.175 314Z" fill="#0439D9" fill-rule="evenodd"/><path d="M525.5 311.188 530.63 308.5 541.239 314.483 541.5 320.205 536.717 323.5 525.761 317.344C525.703 315.408 525.645 313.471 525.5 311.188Z" stroke="#FFFFFF" stroke-miterlimit="8" fill="#FFFFFF" fill-rule="evenodd"/><path d="M530.175 308 526 310.88 536.07 317 540 314.12 530.175 308Z" fill="#0439D9" fill-rule="evenodd"/><path d="M541.5 302.049 541.722 308.639 554.5 316.5 563.389 311.067 563.5 304.939 550.389 296.5 541.5 302.049Z" stroke="#FFFFFF" stroke-miterlimit="8" fill="#FFFFFF" fill-rule="evenodd"/><path d="M543 302.18 554.143 309 561 304.6 550.071 298 543 302.18Z" fill="#0439D9" fill-rule="evenodd"/><path d="M547.5 295.58C548.422 293.931 549.578 294.365 550.5 295.58L550.5 301.843C549.5 302.537 548.5 302.884 547.5 301.843L547.5 295.58Z" stroke="#FFFFFF" stroke-miterlimit="8" fill="#0439D9" fill-rule="evenodd"/><path d="M547.5 296C547.5 295.172 548.172 294.5 549 294.5 549.828 294.5 550.5 295.172 550.5 296 550.5 296.828 549.828 297.5 549 297.5 548.172 297.5 547.5 296.828 547.5 296Z" stroke="#FFFFFF" stroke-miterlimit="8" fill="#0439D9" fill-rule="evenodd"/></g></svg>